<svg xmlns:xlink="http://www.w3.org/1999/xlink" xmlns="http://www.w3.org/2000/svg" version="1.0" preserveAspectRatio="xMidYMid meet" zoomAndPan="magnify" style="max-height: 500px" viewBox="0.06 -18 1042.38 315.5"><defs><g/><clipPath id="f37df693e8"><path clip-rule="nonzero" d="M 0.0625 0 L 1042.4375 0 L 1042.4375 297.5 L 0.0625 297.5 Z M 0.0625 0"/></clipPath><clipPath id="fbca4036aa"><path clip-rule="nonzero" d="M 40.246094 0.00390625 L 246.320312 0.00390625 L 246.320312 208.324219 L 40.246094 208.324219 Z M 40.246094 0.00390625"/></clipPath><clipPath id="80ddf55d52"><path clip-rule="nonzero" d="M 108.878906 6.765625 C 119.394531 2.683594 131.421875 0.00390625 143.191406 0.00390625 C 154.964844 0.00390625 166.292969 2.300781 176.730469 6.382812 C 176.953125 6.511719 177.175781 6.511719 177.398438 6.636719 C 216.601562 22.964844 245.472656 66.078125 246.03125 114.691406 L 246.03125 208.285156 L 40.246094 208.285156 L 40.246094 114.757812 C 40.800781 65.824219 69.230469 22.710938 108.878906 6.765625 Z M 108.878906 6.765625"/></clipPath><clipPath id="21966416f2"><path clip-rule="nonzero" d="M 87 65 L 193 65 L 193 85 L 87 85 Z M 87 65"/></clipPath><clipPath id="d7c1e7fba5"><path clip-rule="nonzero" d="M 191.84375 64.820312 L 192.773438 75.855469 L 88.058594 84.683594 L 87.128906 73.648438 Z M 191.84375 64.820312"/></clipPath><clipPath id="adf54dd3c8"><path clip-rule="nonzero" d="M 192.308594 70.339844 C 192.5625 73.386719 190.300781 76.066406 187.253906 76.324219 L 93.585938 84.21875 C 90.539062 84.476562 87.859375 82.214844 87.601562 79.167969 C 87.347656 76.121094 89.609375 73.441406 92.65625 73.183594 L 186.324219 65.285156 C 189.371094 65.03125 192.050781 67.292969 192.308594 70.339844 Z M 192.308594 70.339844"/></clipPath><clipPath id="efb944b386"><path clip-rule="nonzero" d="M 78 59 L 106 59 L 106 109 L 78 109 Z M 78 59"/></clipPath><clipPath id="16b546097a"><path clip-rule="nonzero" d="M 77.273438 61.949219 L 87.542969 57.800781 L 106.886719 105.699219 L 96.617188 109.847656 Z M 77.273438 61.949219"/></clipPath><clipPath id="0354114b20"><path clip-rule="nonzero" d="M 82.40625 59.875 C 85.242188 58.730469 88.46875 60.101562 89.613281 62.9375 L 104.800781 100.535156 C 105.945312 103.371094 104.574219 106.597656 101.738281 107.746094 C 98.902344 108.890625 95.675781 107.519531 94.53125 104.683594 L 79.34375 67.085938 C 78.199219 64.25 79.570312 61.019531 82.40625 59.875 Z M 82.40625 59.875"/></clipPath><clipPath id="bee5a7b102"><path clip-rule="nonzero" d="M 62 39 L 120 39 L 120 67 L 62 67 Z M 62 39"/></clipPath><clipPath id="56537dd1f6"><path clip-rule="nonzero" d="M 62.445312 40.21875 L 117.753906 36.21875 L 119.863281 65.367188 L 64.554688 69.371094 Z M 62.445312 40.21875"/></clipPath><clipPath id="ad7ff42ae6"><path clip-rule="nonzero" d="M 62.445312 40.21875 L 117.753906 36.21875 L 121.757812 91.527344 L 66.449219 95.527344 Z M 62.445312 40.21875"/></clipPath><clipPath id="ab1b9ca415"><path clip-rule="nonzero" d="M 177 31 L 201 31 L 201 112 L 177 112 Z M 177 31"/></clipPath><clipPath id="f7576a262d"><path clip-rule="nonzero" d="M 176.5625 32.140625 L 187.472656 30.246094 L 201.355469 110.167969 L 190.445312 112.0625 Z M 176.5625 32.140625"/></clipPath><clipPath id="60cb5c5c45"><path clip-rule="nonzero" d="M 182.019531 31.195312 C 185.03125 30.671875 187.898438 32.6875 188.421875 35.703125 L 200.40625 104.691406 C 200.929688 107.703125 198.910156 110.570312 195.898438 111.09375 C 192.882812 111.617188 190.015625 109.601562 189.492188 106.585938 L 177.511719 37.597656 C 176.988281 34.585938 179.003906 31.71875 182.019531 31.195312 Z M 182.019531 31.195312"/></clipPath><clipPath id="49b5f0e59d"><path clip-rule="nonzero" d="M 177 30 L 212 30 L 212 44 L 177 44 Z M 177 30"/></clipPath><clipPath id="f666d98970"><path clip-rule="nonzero" d="M 212.28125 35.082031 L 210.921875 44.558594 L 177.226562 39.726562 L 178.585938 30.246094 Z M 212.28125 35.082031"/></clipPath><clipPath id="742fa673ad"><path clip-rule="nonzero" d="M 211.601562 39.820312 C 211.421875 41.078125 210.75 42.210938 209.734375 42.972656 C 208.71875 43.734375 207.441406 44.0625 206.183594 43.878906 L 181.976562 40.40625 C 180.71875 40.226562 179.582031 39.554688 178.824219 38.539062 C 178.0625 37.523438 177.734375 36.246094 177.914062 34.988281 C 178.09375 33.730469 178.765625 32.597656 179.785156 31.835938 C 180.800781 31.074219 182.078125 30.746094 183.335938 30.929688 L 207.542969 34.402344 C 208.800781 34.582031 209.933594 35.253906 210.695312 36.269531 C 211.457031 37.285156 211.78125 38.5625 211.601562 39.820312 Z M 211.601562 39.820312"/></clipPath></defs><g clip-path="url(#f37df693e8)"><path fill-rule="nonzero" fill-opacity="1" d="M 0.0625 0 L 1042.4375 0 L 1042.4375 297.5 L 0.0625 297.5 Z M 0.0625 0" fill="#ffffff"/></g><g fill-opacity="1" fill="#132223"><g transform="translate(263.781084, 178.358448)"><g><path d="M 80.359375 -40.671875 L 99.78125 -40.671875 C 99.113281 -34.742188 97.421875 -29.222656 94.703125 -24.109375 C 91.984375 -18.992188 88.476562 -14.519531 84.1875 -10.6875 C 79.90625 -6.863281 75.046875 -3.859375 69.609375 -1.671875 C 64.171875 0.515625 58.398438 1.609375 52.296875 1.609375 C 45.703125 1.609375 39.539062 0.375 33.8125 -2.09375 C 28.082031 -4.570312 23.050781 -7.992188 18.71875 -12.359375 C 14.394531 -16.734375 11.019531 -21.785156 8.59375 -27.515625 C 6.164062 -33.242188 4.953125 -39.40625 4.953125 -46 C 4.953125 -52.59375 6.164062 -58.769531 8.59375 -64.53125 C 11.019531 -70.300781 14.394531 -75.367188 18.71875 -79.734375 C 23.050781 -84.109375 28.082031 -87.53125 33.8125 -90 C 39.539062 -92.476562 45.660156 -93.71875 52.171875 -93.71875 C 60.742188 -93.71875 68.632812 -91.675781 75.84375 -87.59375 C 83.0625 -83.519531 88.734375 -78.101562 92.859375 -71.34375 L 77.890625 -60.703125 C 74.597656 -65.648438 70.703125 -69.335938 66.203125 -71.765625 C 61.710938 -74.203125 57.078125 -75.421875 52.296875 -75.421875 C 47.191406 -75.421875 42.535156 -74.097656 38.328125 -71.453125 C 34.117188 -68.816406 30.78125 -65.273438 28.3125 -60.828125 C 25.84375 -56.378906 24.609375 -51.4375 24.609375 -46 C 24.609375 -40.632812 25.84375 -35.726562 28.3125 -31.28125 C 30.78125 -26.832031 34.117188 -23.304688 38.328125 -20.703125 C 42.535156 -18.109375 47.191406 -16.8125 52.296875 -16.8125 C 56.910156 -16.8125 61.175781 -17.84375 65.09375 -19.90625 C 69.007812 -21.96875 72.328125 -24.789062 75.046875 -28.375 C 77.765625 -31.957031 79.535156 -36.054688 80.359375 -40.671875 Z M 80.359375 -40.671875"/></g></g></g><g fill-opacity="1" fill="#132223"><g transform="translate(368.503162, 178.358448)"><g><path d="M 27.328125 -5.9375 L -0.734375 -62.4375 L 18.546875 -62.4375 L 36.59375 -23.734375 L 54.28125 -62.4375 L 71.71875 -62.4375 L 28.8125 29.796875 L 10.640625 29.796875 Z M 27.328125 -5.9375"/></g></g></g><g fill-opacity="1" fill="#132223"><g transform="translate(439.471841, 178.358448)"><g><path d="M 50.8125 -28.6875 L 68.875 -28.6875 C 68.457031 -23.164062 66.722656 -18.113281 63.671875 -13.53125 C 60.617188 -8.957031 56.679688 -5.332031 51.859375 -2.65625 C 47.046875 0.0195312 41.753906 1.359375 35.984375 1.359375 C 31.523438 1.359375 27.335938 0.515625 23.421875 -1.171875 C 19.515625 -2.859375 16.078125 -5.207031 13.109375 -8.21875 C 10.140625 -11.226562 7.804688 -14.691406 6.109375 -18.609375 C 4.421875 -22.523438 3.578125 -26.707031 3.578125 -31.15625 C 3.578125 -37.175781 5.039062 -42.65625 7.96875 -47.59375 C 10.894531 -52.539062 14.8125 -56.476562 19.71875 -59.40625 C 24.625 -62.332031 30.046875 -63.796875 35.984375 -63.796875 C 41.085938 -63.796875 45.863281 -62.679688 50.3125 -60.453125 C 54.769531 -58.234375 58.523438 -55.269531 61.578125 -51.5625 L 47.609375 -40.671875 C 46.035156 -42.734375 44.238281 -44.175781 42.21875 -45 C 40.195312 -45.820312 38.117188 -46.234375 35.984375 -46.234375 C 31.941406 -46.234375 28.5 -44.8125 25.65625 -41.96875 C 22.8125 -39.125 21.390625 -35.519531 21.390625 -31.15625 C 21.390625 -26.707031 22.8125 -23.082031 25.65625 -20.28125 C 28.5 -17.476562 31.941406 -16.078125 35.984375 -16.078125 C 39.859375 -16.078125 43.15625 -17.226562 45.875 -19.53125 C 48.59375 -21.84375 50.238281 -24.894531 50.8125 -28.6875 Z M 50.8125 -28.6875"/></g></g></g><g fill-opacity="1" fill="#132223"><g transform="translate(511.800542, 178.358448)"><g><path d="M 6.1875 -92.109375 L 23.734375 -92.109375 L 23.734375 0 L 6.1875 0 Z M 6.1875 -92.109375"/></g></g></g><g fill-opacity="1" fill="#132223"><g transform="translate(541.721119, 178.358448)"><g><path d="M 50.9375 -22.375 L 64.90625 -11.625 C 62.269531 -7.664062 58.4375 -4.507812 53.40625 -2.15625 C 48.382812 0.1875 43.070312 1.359375 37.46875 1.359375 C 32.769531 1.359375 28.378906 0.515625 24.296875 -1.171875 C 20.210938 -2.859375 16.601562 -5.207031 13.46875 -8.21875 C 10.34375 -11.226562 7.910156 -14.691406 6.171875 -18.609375 C 4.441406 -22.523438 3.578125 -26.707031 3.578125 -31.15625 C 3.578125 -37.175781 5.039062 -42.65625 7.96875 -47.59375 C 10.894531 -52.539062 14.8125 -56.476562 19.71875 -59.40625 C 24.625 -62.332031 30.046875 -63.796875 35.984375 -63.796875 C 41.171875 -63.796875 45.863281 -62.765625 50.0625 -60.703125 C 54.269531 -58.640625 57.859375 -55.941406 60.828125 -52.609375 C 63.796875 -49.273438 65.898438 -45.671875 67.140625 -41.796875 L 32.265625 -16.8125 C 33.085938 -16.488281 33.929688 -16.285156 34.796875 -16.203125 C 35.671875 -16.117188 36.5625 -16.078125 37.46875 -16.078125 C 40.101562 -16.078125 42.65625 -16.570312 45.125 -17.5625 C 47.601562 -18.550781 49.539062 -20.15625 50.9375 -22.375 Z M 21.390625 -31.15625 C 21.390625 -29.507812 21.554688 -28.148438 21.890625 -27.078125 L 44.640625 -43.28125 C 43.398438 -44.1875 42.054688 -44.90625 40.609375 -45.4375 C 39.171875 -45.96875 37.628906 -46.234375 35.984375 -46.234375 C 31.941406 -46.234375 28.5 -44.8125 25.65625 -41.96875 C 22.8125 -39.125 21.390625 -35.519531 21.390625 -31.15625 Z M 21.390625 -31.15625"/></g></g></g><g fill-opacity="1" fill="#132223"><g transform="translate(612.442534, 178.358448)"><g><path d="M 8.78125 -92.109375 L 46.125 -92.109375 C 52.789062 -92.109375 59.03125 -90.953125 64.84375 -88.640625 C 70.65625 -86.335938 75.765625 -83.101562 80.171875 -78.9375 C 84.585938 -74.78125 88.050781 -69.921875 90.5625 -64.359375 C 93.082031 -58.796875 94.34375 -52.71875 94.34375 -46.125 C 94.34375 -39.53125 93.082031 -33.425781 90.5625 -27.8125 C 88.050781 -22.207031 84.585938 -17.320312 80.171875 -13.15625 C 75.765625 -9 70.65625 -5.765625 64.84375 -3.453125 C 59.03125 -1.148438 52.828125 0 46.234375 0 L 8.78125 0 Z M 27.9375 -17.3125 L 46.234375 -17.3125 C 51.597656 -17.3125 56.421875 -18.566406 60.703125 -21.078125 C 64.992188 -23.597656 68.394531 -27.019531 70.90625 -31.34375 C 73.414062 -35.664062 74.671875 -40.59375 74.671875 -46.125 C 74.671875 -51.726562 73.414062 -56.671875 70.90625 -60.953125 C 68.394531 -65.242188 64.972656 -68.625 60.640625 -71.09375 C 56.316406 -73.5625 51.476562 -74.796875 46.125 -74.796875 L 27.9375 -74.796875 Z M 27.9375 -17.3125"/></g></g></g><g fill-opacity="1" fill="#132223"><g transform="translate(711.724515, 178.358448)"><g><path d="M 49.453125 -62.4375 L 67.015625 -62.4375 L 67.015625 0 L 49.453125 0 L 49.453125 -4.453125 C 48.140625 -2.640625 46 -1.21875 43.03125 -0.1875 C 40.0625 0.84375 37.132812 1.359375 34.25 1.359375 C 28.5625 1.359375 23.410156 -0.125 18.796875 -3.09375 C 14.179688 -6.0625 10.488281 -9.992188 7.71875 -14.890625 C 4.957031 -19.796875 3.578125 -25.21875 3.578125 -31.15625 C 3.578125 -37.175781 4.976562 -42.65625 7.78125 -47.59375 C 10.59375 -52.539062 14.328125 -56.476562 18.984375 -59.40625 C 23.640625 -62.332031 28.726562 -63.796875 34.25 -63.796875 C 37.050781 -63.796875 39.957031 -63.21875 42.96875 -62.0625 C 45.976562 -60.914062 48.140625 -59.597656 49.453125 -58.109375 Z M 35.984375 -16.078125 C 40.097656 -16.078125 43.492188 -17.476562 46.171875 -20.28125 C 48.859375 -23.082031 50.203125 -26.707031 50.203125 -31.15625 C 50.203125 -35.519531 48.859375 -39.125 46.171875 -41.96875 C 43.492188 -44.8125 40.097656 -46.234375 35.984375 -46.234375 C 31.941406 -46.234375 28.5 -44.8125 25.65625 -41.96875 C 22.8125 -39.125 21.390625 -35.519531 21.390625 -31.15625 C 21.390625 -26.707031 22.8125 -23.082031 25.65625 -20.28125 C 28.5 -17.476562 31.941406 -16.078125 35.984375 -16.078125 Z M 35.984375 -16.078125"/></g></g></g><g fill-opacity="1" fill="#132223"><g transform="translate(784.918695, 178.358448)"><g><path d="M 49.453125 -92.109375 L 67.015625 -92.109375 L 67.015625 0 L 49.453125 0 L 49.453125 -4.453125 C 48.140625 -2.640625 46 -1.21875 43.03125 -0.1875 C 40.0625 0.84375 37.132812 1.359375 34.25 1.359375 C 28.5625 1.359375 23.410156 -0.125 18.796875 -3.09375 C 14.179688 -6.0625 10.488281 -9.992188 7.71875 -14.890625 C 4.957031 -19.796875 3.578125 -25.21875 3.578125 -31.15625 C 3.578125 -37.175781 4.976562 -42.65625 7.78125 -47.59375 C 10.59375 -52.539062 14.328125 -56.476562 18.984375 -59.40625 C 23.640625 -62.332031 28.726562 -63.796875 34.25 -63.796875 C 37.050781 -63.796875 39.957031 -63.21875 42.96875 -62.0625 C 45.976562 -60.914062 48.140625 -59.597656 49.453125 -58.109375 Z M 35.984375 -16.078125 C 40.097656 -16.078125 43.492188 -17.476562 46.171875 -20.28125 C 48.859375 -23.082031 50.203125 -26.707031 50.203125 -31.15625 C 50.203125 -35.519531 48.859375 -39.125 46.171875 -41.96875 C 43.492188 -44.8125 40.097656 -46.234375 35.984375 -46.234375 C 31.941406 -46.234375 28.5 -44.8125 25.65625 -41.96875 C 22.8125 -39.125 21.390625 -35.519531 21.390625 -31.15625 C 21.390625 -26.707031 22.8125 -23.082031 25.65625 -20.28125 C 28.5 -17.476562 31.941406 -16.078125 35.984375 -16.078125 Z M 35.984375 -16.078125"/></g></g></g><g fill-opacity="1" fill="#132223"><g transform="translate(858.112875, 178.358448)"><g><path d="M 49.453125 -92.109375 L 67.015625 -92.109375 L 67.015625 0 L 49.453125 0 L 49.453125 -4.453125 C 48.140625 -2.640625 46 -1.21875 43.03125 -0.1875 C 40.0625 0.84375 37.132812 1.359375 34.25 1.359375 C 28.5625 1.359375 23.410156 -0.125 18.796875 -3.09375 C 14.179688 -6.0625 10.488281 -9.992188 7.71875 -14.890625 C 4.957031 -19.796875 3.578125 -25.21875 3.578125 -31.15625 C 3.578125 -37.175781 4.976562 -42.65625 7.78125 -47.59375 C 10.59375 -52.539062 14.328125 -56.476562 18.984375 -59.40625 C 23.640625 -62.332031 28.726562 -63.796875 34.25 -63.796875 C 37.050781 -63.796875 39.957031 -63.21875 42.96875 -62.0625 C 45.976562 -60.914062 48.140625 -59.597656 49.453125 -58.109375 Z M 35.984375 -16.078125 C 40.097656 -16.078125 43.492188 -17.476562 46.171875 -20.28125 C 48.859375 -23.082031 50.203125 -26.707031 50.203125 -31.15625 C 50.203125 -35.519531 48.859375 -39.125 46.171875 -41.96875 C 43.492188 -44.8125 40.097656 -46.234375 35.984375 -46.234375 C 31.941406 -46.234375 28.5 -44.8125 25.65625 -41.96875 C 22.8125 -39.125 21.390625 -35.519531 21.390625 -31.15625 C 21.390625 -26.707031 22.8125 -23.082031 25.65625 -20.28125 C 28.5 -17.476562 31.941406 -16.078125 35.984375 -16.078125 Z M 35.984375 -16.078125"/></g></g></g><g fill-opacity="1" fill="#132223"><g transform="translate(931.307056, 178.358448)"><g><path d="M 27.328125 -5.9375 L -0.734375 -62.4375 L 18.546875 -62.4375 L 36.59375 -23.734375 L 54.28125 -62.4375 L 71.71875 -62.4375 L 28.8125 29.796875 L 10.640625 29.796875 Z M 27.328125 -5.9375"/></g></g></g><g clip-path="url(#fbca4036aa)"><g clip-path="url(#80ddf55d52)"><path stroke-miterlimit="4" stroke-opacity="1" stroke-width="36" stroke="#132223" d="M 91.588502 9.022547 C 105.621108 3.575268 121.671032 -0.000648399 137.376918 -0.000648399 C 153.088016 -0.000648399 168.204866 3.064423 182.133218 8.511702 C 182.430342 8.683721 182.727467 8.683721 183.024591 8.850528 C 235.339316 30.639642 273.866431 88.172286 274.611848 153.044422 L 274.611848 277.940875 L 0.00124413 277.940875 L 0.00124413 153.133038 C 0.741448 87.83346 38.679528 30.300816 91.588502 9.022547 Z M 91.588502 9.022547" stroke-linejoin="miter" fill="none" transform="matrix(0.749371, 0.000000000000000001, -0.000000000000000001, 0.749371, 40.245161, 0.00439214)" stroke-linecap="butt"/></g></g><path stroke-miterlimit="4" stroke-opacity="1" stroke-width="7.740215" stroke="#132223" d="M 111.777273 103.923096 L 138.046662 103.922494 C 137.177235 111.962832 134.890493 119.436028 131.183886 126.35751 C 127.504693 133.272957 122.767726 139.331987 116.966991 144.538892 C 111.161072 149.71324 104.586702 153.783124 97.232747 156.751987 C 89.8779 159.694286 82.073767 161.167486 73.821197 161.166447 C 64.887339 161.163741 56.536565 159.487466 48.774019 156.138472 C 41.038038 152.788586 34.243015 148.157146 28.388102 142.249294 C 22.534039 136.3363 17.955646 129.514086 14.658916 121.77836 C 11.366436 114.01692 9.71426 105.665424 9.716966 96.731566 C 9.714571 87.828565 11.366832 79.463255 14.660912 71.649363 C 17.955841 63.830329 22.529775 56.967683 28.388706 51.057132 C 34.242494 45.145731 41.041501 40.515951 48.775443 37.166092 C 56.535949 33.81534 64.833423 32.138383 73.65673 32.138665 C 85.232607 32.139577 95.896919 34.906267 105.650515 40.433591 C 115.424683 45.964316 123.108547 53.305155 128.691822 62.454407 L 108.424854 76.835472 C 103.984595 70.136478 98.713627 65.138804 92.61709 61.843301 C 86.541976 58.546056 80.278805 56.89786 73.822435 56.897863 C 66.900736 56.900198 60.596718 58.695339 54.903537 62.292723 C 49.210315 65.858399 44.687624 70.653122 41.341458 76.672598 C 37.990149 82.691225 36.314235 89.377773 36.313717 96.732243 C 36.315665 104.007869 37.991282 110.651403 41.338868 116.673133 C 44.692447 122.690569 49.208981 127.457864 54.904749 130.972425 C 60.595374 134.486137 66.904107 136.24225 73.819813 136.244207 C 80.059373 136.245349 85.821466 134.851987 91.104392 132.074406 C 96.41299 129.269368 100.907829 125.442195 104.583765 120.592037 C 108.263994 115.747872 110.662114 110.189844 111.777273 103.923096 Z M 111.777273 103.923096" stroke-linejoin="miter" fill="none" transform="matrix(0.739338, -0.122214, 0.122214, 0.739338, 35.146253, 85.599948)" stroke-linecap="butt"/><g fill-opacity="1" fill="#132223"><g transform="translate(56.807877, 202.786086)"><g><path d="M 73.6875 -54.015625 L 93.109375 -57.21875 C 93.441406 -51.164062 92.664062 -45.351562 90.78125 -39.78125 C 88.90625 -34.21875 86.140625 -29.164062 82.484375 -24.625 C 78.828125 -20.082031 74.457031 -16.269531 69.375 -13.1875 C 64.300781 -10.101562 58.710938 -8.054688 52.609375 -7.046875 C 46.003906 -5.953125 39.628906 -6.164062 33.484375 -7.6875 C 27.347656 -9.21875 21.753906 -11.8125 16.703125 -15.46875 C 11.648438 -19.132812 7.429688 -23.628906 4.046875 -28.953125 C 0.671875 -34.285156 -1.5625 -40.25 -2.65625 -46.84375 C -3.75 -53.4375 -3.554688 -59.820312 -2.078125 -66 C -0.597656 -72.175781 1.941406 -77.804688 5.546875 -82.890625 C 9.148438 -87.984375 13.613281 -92.238281 18.9375 -95.65625 C 24.269531 -99.082031 30.195312 -101.332031 36.71875 -102.40625 C 45.289062 -103.832031 53.519531 -103.097656 61.40625 -100.203125 C 69.300781 -97.316406 75.875 -92.832031 81.125 -86.75 L 67.890625 -73.640625 C 63.785156 -78.035156 59.285156 -81.078125 54.390625 -82.765625 C 49.492188 -84.460938 44.65625 -84.914062 39.875 -84.125 C 34.75 -83.269531 30.300781 -81.175781 26.53125 -77.84375 C 22.757812 -74.507812 20.003906 -70.410156 18.265625 -65.546875 C 16.535156 -60.679688 16.117188 -55.53125 17.015625 -50.09375 C 17.898438 -44.726562 19.945312 -40.023438 23.15625 -35.984375 C 26.375 -31.941406 30.296875 -28.96875 34.921875 -27.0625 C 39.554688 -25.15625 44.4375 -24.628906 49.5625 -25.484375 C 54.175781 -26.242188 58.269531 -27.976562 61.84375 -30.6875 C 65.425781 -33.394531 68.28125 -36.769531 70.40625 -40.8125 C 72.539062 -44.851562 73.632812 -49.253906 73.6875 -54.015625 Z M 73.6875 -54.015625"/></g></g></g><g clip-path="url(#21966416f2)"><g clip-path="url(#d7c1e7fba5)"><g clip-path="url(#adf54dd3c8)"><path fill-rule="nonzero" fill-opacity="1" d="M 191.84375 64.820312 L 192.773438 75.855469 L 88.058594 84.683594 L 87.128906 73.648438 Z M 191.84375 64.820312" fill="#132223"/></g></g></g><g clip-path="url(#efb944b386)"><g clip-path="url(#16b546097a)"><g clip-path="url(#0354114b20)"><path fill-rule="nonzero" fill-opacity="1" d="M 77.273438 61.949219 L 87.542969 57.800781 L 106.867188 105.660156 L 96.597656 109.804688 Z M 77.273438 61.949219" fill="#132223"/></g></g></g><g clip-path="url(#bee5a7b102)"><g clip-path="url(#56537dd1f6)"><g clip-path="url(#ad7ff42ae6)"><path fill-rule="nonzero" fill-opacity="1" d="M 109.332031 43.820312 L 93.097656 44.996094 C 85.851562 45.519531 79.101562 43.339844 74.042969 39.382812 L 69.402344 39.71875 C 65.5625 39.996094 62.671875 43.335938 62.949219 47.179688 C 63.78125 58.703125 73.800781 67.375 85.332031 66.539062 C 87.851562 66.355469 90.339844 65.789062 92.652344 64.84375 L 104.960938 63.953125 C 106.875 63.816406 109.371094 62.4375 110.511719 60.894531 L 114.808594 55.082031 L 119.449219 54.746094 L 119.28125 52.425781 C 118.910156 47.304688 114.453125 43.449219 109.332031 43.820312 Z M 107.707031 58.824219 C 107.175781 59.546875 105.601562 60.410156 104.707031 60.476562 L 98.910156 60.894531 C 101.960938 58.054688 105.9375 56.265625 110.125 55.550781 Z M 107.707031 58.824219" fill="#132223"/></g></g></g><g clip-path="url(#ab1b9ca415)"><g clip-path="url(#f7576a262d)"><g clip-path="url(#60cb5c5c45)"><path fill-rule="nonzero" fill-opacity="1" d="M 176.5625 32.140625 L 187.472656 30.246094 L 201.355469 110.167969 L 190.445312 112.0625 Z M 176.5625 32.140625" fill="#132223"/></g></g></g><g clip-path="url(#49b5f0e59d)"><g clip-path="url(#f666d98970)"><g clip-path="url(#742fa673ad)"><path fill-rule="nonzero" fill-opacity="1" d="M 212.28125 35.082031 L 210.921875 44.558594 L 177.226562 39.726562 L 178.585938 30.246094 Z M 212.28125 35.082031" fill="#132223"/></g></g></g><path stroke-miterlimit="4" stroke-opacity="1" stroke-width="7.740215" stroke="#132223" d="M 18.578821 34.303043 L 69.116748 34.306729 C 78.15836 34.303043 86.602849 35.869568 94.44653 39.002617 C 102.319698 42.135666 109.238208 46.518249 115.202059 52.157738 C 121.165911 57.797226 125.854427 64.387688 129.25655 71.932807 C 132.662358 79.452125 134.365263 87.6644 134.365263 96.569632 C 134.365263 105.504351 132.666044 113.771915 129.260235 121.372324 C 125.854427 128.943246 121.165911 135.548451 115.202059 141.187939 C 109.238208 146.827428 102.319698 151.210011 94.44653 154.34306 C 86.602849 157.446622 78.213649 159.002088 69.278929 159.002088 L 18.578821 158.998403 Z M 44.524154 135.588996 L 69.278929 135.588996 C 76.525488 135.588996 83.049602 133.886091 88.851272 130.480283 C 94.652942 127.074474 99.256682 122.448619 102.658805 116.59166 C 106.068299 110.734701 107.767518 104.059463 107.767518 96.569632 C 107.767518 88.998711 106.064613 82.312415 102.658805 76.510745 C 99.252996 70.709075 94.623455 66.131137 88.770182 62.784304 C 82.913222 59.433784 76.363307 57.756681 69.116748 57.756681 L 44.524154 57.756681 Z M 44.524154 135.588996" stroke-linejoin="miter" fill="none" transform="matrix(0.529885, 0.529885, -0.529885, 0.529885, 200.082032, 58.107592)" stroke-linecap="butt"/><g fill-opacity="1" fill="#132223"><g transform="translate(119.3739, 145.902937)"><g><path d="M 72.359375 -59.765625 L 99.140625 -32.984375 C 103.929688 -28.191406 107.578125 -22.882812 110.078125 -17.0625 C 112.585938 -11.25 113.929688 -5.269531 114.109375 0.875 C 114.296875 7.03125 113.296875 13.003906 111.109375 18.796875 C 108.921875 24.585938 105.460938 29.847656 100.734375 34.578125 C 96.003906 39.304688 90.726562 42.78125 84.90625 45 C 79.082031 47.21875 73.09375 48.238281 66.9375 48.0625 C 60.78125 47.882812 54.796875 46.539062 48.984375 44.03125 C 43.171875 41.519531 37.898438 37.898438 33.171875 33.171875 L 6.296875 6.296875 Z M 32.46875 7.625 L 45.59375 20.75 C 49.425781 24.582031 53.78125 27.132812 58.65625 28.40625 C 63.539062 29.6875 68.4375 29.675781 73.34375 28.375 C 78.25 27.070312 82.679688 24.441406 86.640625 20.484375 C 90.648438 16.472656 93.289062 12.023438 94.5625 7.140625 C 95.84375 2.265625 95.816406 -2.613281 94.484375 -7.5 C 93.148438 -12.382812 90.566406 -16.742188 86.734375 -20.578125 L 73.703125 -33.609375 Z M 32.46875 7.625"/></g></g></g></svg>